<?xml version="1.0" standalone="no"?>
<!DOCTYPE svg PUBLIC "-//W3C//DTD SVG 20010904//EN"
 "http://www.w3.org/TR/2001/REC-SVG-20010904/DTD/svg10.dtd">
<svg version="1.0" xmlns="http://www.w3.org/2000/svg"
 width="300.000000pt" height="300.000000pt" viewBox="0 0 300.000000 300.000000"
 preserveAspectRatio="xMidYMid meet">
<metadata>
Created by potrace 1.10, written by Peter Selinger 2001-2011
</metadata>
<g transform="translate(0.000000,300.000000) scale(0.100000,-0.100000)"
fill="#000000" stroke="none">
<path d="M1413 2563 c-35 -5 -46 -23 -14 -23 10 0 43 -13 73 -29 37 -19 78
-31 124 -35 85 -9 165 -29 230 -57 58 -26 184 -105 184 -116 0 -5 -33 -7 -74
-5 -126 7 -237 -28 -343 -109 -61 -45 -80 -74 -58 -83 9 -3 29 10 51 34 35 38
146 99 209 115 36 10 83 14 145 15 24 0 55 7 68 16 l23 15 -23 31 c-12 18 -16
28 -8 23 9 -5 11 -4 6 3 -4 7 -13 12 -20 12 -11 0 -24 9 -73 49 -6 6 -23 13
-37 17 -26 6 -33 18 -17 28 4 3 11 2 15 -2 4 -4 11 -7 14 -7 8 -1 47 -24 112
-68 55 -38 126 -107 122 -119 -1 -5 2 -7 7 -4 4 3 20 -11 33 -32 51 -77 78
-122 78 -128 0 -4 8 -16 17 -26 15 -17 15 -21 3 -28 -16 -10 -36 13 -26 29 3
5 -4 19 -15 32 -11 13 -24 29 -27 35 -10 15 -77 54 -95 54 -8 0 -17 5 -19 11
-2 5 -18 11 -35 11 -18 1 -30 5 -27 10 3 4 -2 8 -11 8 -10 0 -13 -5 -9 -12 5
-7 3 -8 -7 -3 -7 5 -44 9 -80 10 -37 0 -63 -3 -57 -6 5 -3 -6 -9 -25 -12 -19
-3 -54 -15 -77 -26 -24 -11 -47 -18 -53 -14 -6 4 -7 1 -2 -7 6 -10 4 -12 -9
-7 -11 5 -15 3 -10 -5 5 -8 2 -9 -9 -5 -10 3 -17 2 -17 -3 0 -13 -42 -55 -62
-63 -10 -3 -18 -15 -18 -25 0 -25 -11 -34 -26 -21 -14 12 -15 11 -14 -83 0
-31 -4 -59 -9 -63 -6 -3 -8 -13 -5 -23 5 -14 4 -14 -4 -3 -6 8 -8 20 -5 27 2
6 0 15 -6 19 -6 3 -11 24 -11 46 0 22 -5 39 -11 39 -6 0 -8 7 -5 16 3 8 2 13
-3 10 -5 -3 -12 5 -15 18 -3 13 -25 42 -48 65 -85 82 -243 104 -356 49 -58
-29 -136 -107 -171 -173 -23 -45 -26 -61 -26 -150 1 -91 3 -106 32 -165 17
-36 51 -84 74 -108 24 -24 35 -40 24 -36 -17 7 -18 6 -5 -8 8 -9 18 -14 23
-11 4 2 7 -1 7 -6 0 -6 6 -11 13 -11 16 0 78 -65 71 -73 -3 -3 4 -8 15 -12 11
-3 30 -20 42 -36 12 -17 24 -28 27 -25 3 4 18 -12 33 -35 17 -26 29 -36 32
-27 4 9 6 8 6 -3 1 -10 13 -20 28 -24 15 -3 32 -12 36 -18 6 -8 7 -6 4 5 -3 9
1 22 9 29 8 6 12 20 9 30 -8 23 11 34 23 13 7 -12 13 -5 27 33 46 122 109 184
270 267 161 83 229 149 256 251 15 54 6 151 -19 208 -25 57 -39 60 -34 8 9
-89 -73 -196 -207 -271 -117 -65 -222 -151 -268 -218 -57 -84 -88 -185 -80
-266 l6 -61 -179 175 c-193 190 -219 226 -241 344 -25 135 46 272 173 336 52
25 73 30 136 30 93 0 145 -22 202 -87 44 -50 60 -94 60 -164 0 -32 6 -51 18
-62 45 -41 82 -6 82 77 0 71 23 117 85 175 142 131 398 148 511 35 35 -34 48
-60 75 -140 30 -92 33 -108 33 -234 -1 -120 -4 -144 -28 -220 -15 -47 -42
-110 -59 -140 -105 -190 -294 -333 -494 -375 -116 -25 -120 -24 -202 59 l-73
74 11 35 c20 59 69 123 124 161 29 20 116 60 193 89 76 29 165 70 198 92 176
117 236 338 136 500 -32 51 -120 126 -120 101 0 -2 12 -28 28 -57 24 -47 27
-64 27 -144 0 -115 -28 -181 -113 -264 -57 -56 -83 -71 -296 -171 -103 -49
-202 -136 -193 -170 3 -11 1 -18 -3 -15 -5 3 -12 1 -15 -5 -8 -13 40 -9 52 5
4 4 2 5 -4 1 -7 -4 -13 -2 -13 3 0 6 7 11 15 11 8 0 14 3 13 8 -3 12 55 68 90
86 17 9 32 21 32 26 0 5 16 12 35 16 19 3 35 10 35 14 0 8 26 18 65 26 11 3
21 9 23 14 2 5 11 6 20 3 9 -3 14 -3 10 2 -4 4 15 19 42 32 28 13 50 29 50 35
0 6 3 8 7 5 3 -4 21 9 40 28 19 19 38 35 43 35 5 0 12 9 15 20 4 11 11 18 16
14 5 -3 8 -2 7 3 -1 4 9 33 24 63 29 61 60 169 52 182 -3 4 2 5 10 2 11 -4 16
-21 17 -53 2 -59 -1 -93 -9 -105 -3 -6 -6 -20 -7 -33 0 -12 -10 -32 -22 -45
-11 -13 -24 -33 -28 -45 -3 -13 -11 -23 -16 -23 -6 0 -7 -5 -4 -10 4 -6 3 -10
-2 -9 -20 3 -33 -2 -33 -15 0 -18 -78 -69 -92 -60 -6 4 -8 3 -5 -3 3 -5 -11
-15 -31 -23 -20 -7 -53 -20 -72 -29 -19 -8 -39 -16 -45 -17 -5 0 -17 -4 -25
-7 -8 -3 -32 -11 -53 -17 -24 -7 -35 -16 -30 -23 4 -7 -2 -5 -12 3 -10 8 -16
10 -12 4 4 -7 -5 -17 -23 -24 -17 -7 -30 -17 -30 -22 0 -6 -6 -8 -14 -5 -7 3
-20 -3 -29 -14 -9 -10 -13 -19 -9 -19 4 0 0 -6 -8 -13 -26 -21 -71 -87 -73
-106 -1 -12 -6 -17 -15 -13 -12 4 -12 1 -3 -16 7 -13 8 -23 1 -27 -6 -4 -4
-15 5 -29 8 -12 12 -26 8 -29 -3 -4 0 -7 8 -7 8 0 21 -15 30 -33 9 -17 21 -32
28 -32 19 0 93 -74 86 -85 -7 -12 -145 -9 -145 3 0 5 -4 6 -8 3 -5 -3 -9 1 -9
9 0 8 9 17 19 21 10 3 16 9 13 14 -3 5 -1 20 4 34 8 19 7 24 -3 20 -7 -3 -19
2 -26 11 -7 8 -10 15 -6 15 3 0 -18 24 -47 53 -28 28 -51 56 -49 60 1 5 -1 6
-6 3 -4 -3 -32 17 -60 44 -29 27 -52 46 -52 42 0 -4 -10 4 -22 16 -30 29 -77
69 -105 89 -13 8 -20 20 -16 26 3 5 1 7 -5 3 -13 -8 -154 145 -147 161 2 7 -1
12 -7 10 -6 -1 -20 20 -30 46 -10 27 -27 68 -38 92 -11 24 -24 68 -30 97 -9
51 -9 50 -5 -22 7 -126 56 -239 144 -334 25 -27 120 -113 211 -191 170 -147
288 -261 279 -270 -8 -7 -139 31 -203 59 -85 38 -166 98 -243 180 -115 123
-181 274 -199 456 -6 67 -8 71 -20 49 -8 -16 -11 -49 -9 -98 3 -55 2 -72 -7
-63 -15 15 -19 55 -20 177 -1 115 22 223 63 302 14 29 21 50 15 47 -6 -3 0 4
13 15 13 12 20 21 16 21 -4 0 -2 7 5 15 10 12 16 13 27 4 10 -9 11 -15 3 -23
-5 -5 -10 -16 -10 -24 0 -8 29 22 64 66 139 172 301 249 441 211 29 -8 58 -30
106 -79 63 -66 102 -89 133 -77 11 5 12 14 5 49 -23 104 -107 185 -222 215
-57 15 -74 16 -129 5 -166 -34 -336 -158 -443 -326 -145 -228 -165 -532 -50
-783 80 -174 220 -320 391 -406 136 -69 199 -82 384 -82 188 0 243 11 376 75
205 99 363 280 436 500 27 83 32 113 36 231 4 117 1 148 -18 225 -71 283 -308
522 -595 600 -59 16 -267 27 -332 17z m254 -36 c12 -1 19 -5 16 -11 -4 -5 1
-7 12 -2 23 8 87 -3 79 -15 -3 -5 1 -6 9 -3 8 3 18 1 22 -5 3 -6 15 -11 25
-11 12 0 17 -5 14 -14 -4 -11 -17 -9 -70 10 -38 13 -101 26 -152 30 -48 4 -91
9 -97 13 -16 9 47 20 85 14 19 -3 45 -6 57 -6z m-307 -52 c45 -6 135 -68 124
-86 -3 -5 1 -9 9 -9 20 0 49 -72 33 -82 -6 -5 -20 3 -34 20 -101 122 -181 149
-328 107 -43 -13 -83 -21 -88 -18 -5 4 -6 1 -3 -4 4 -6 -7 -13 -24 -17 -22 -4
-29 -10 -26 -20 4 -10 1 -13 -7 -10 -7 3 -16 -2 -19 -10 -3 -8 -16 -20 -29
-27 -21 -11 -22 -11 -9 4 7 10 10 17 6 17 -13 0 78 69 115 87 19 9 41 16 48
15 6 -2 12 2 12 7 0 15 149 42 185 33 11 -3 27 -6 35 -7z m-414 -177 c5 -7 3
-8 -6 -3 -10 6 -12 4 -7 -9 4 -9 3 -15 -2 -11 -5 3 -11 0 -13 -7 -2 -6 -9 -8
-16 -4 -8 5 -6 12 6 26 19 23 28 25 38 8z m-41 -47 c3 -5 1 -12 -4 -15 -5 -4
-12 0 -14 6 -3 7 -6 1 -6 -13 -1 -15 -8 -30 -17 -33 -8 -3 -12 -11 -8 -17 4
-7 1 -10 -6 -7 -23 7 -23 29 -1 35 12 3 21 10 20 17 -3 25 2 36 15 36 8 0 17
-4 21 -9z m1417 -426 c2 -147 -2 -206 -12 -200 -7 4 -9 -2 -5 -18 4 -14 2 -28
-4 -31 -6 -4 -11 -12 -11 -17 0 -6 4 -8 9 -5 5 4 4 -9 -2 -26 -17 -53 -60
-138 -68 -138 -5 0 -6 -7 -3 -15 4 -8 1 -15 -5 -15 -6 0 -8 -7 -4 -17 4 -11 3
-14 -5 -9 -7 4 -14 -3 -18 -19 -3 -13 -10 -23 -14 -20 -5 3 -10 -5 -12 -17 -2
-13 -9 -22 -17 -20 -8 2 -11 -3 -8 -13 4 -8 2 -15 -3 -15 -19 0 -19 18 0 38
11 12 20 26 20 32 0 5 3 10 8 10 4 0 18 23 31 50 14 28 29 50 34 50 5 0 6 7 3
16 -4 10 -2 13 6 8 8 -5 9 -2 5 9 -3 10 -3 17 1 17 13 0 30 60 38 128 4 34 10
62 14 62 21 0 -8 299 -35 352 -9 20 -10 28 -1 31 18 7 56 -130 58 -208z m-440
116 c-1 -7 -3 -32 -4 -56 -1 -24 -7 -43 -12 -42 -6 1 -10 -5 -11 -15 0 -22
-78 -104 -118 -124 -18 -9 -34 -20 -37 -24 -8 -11 -110 -60 -110 -52 0 4 -4 2
-8 -3 -10 -15 -66 -50 -74 -47 -5 1 -8 -2 -8 -8 0 -5 -7 -10 -15 -10 -8 0 -15
-6 -15 -14 0 -8 -8 -21 -18 -28 -10 -7 -27 -25 -36 -40 -10 -16 -23 -25 -30
-21 -6 3 -8 2 -3 -2 4 -5 -1 -17 -10 -28 -15 -17 -15 -19 -2 -15 14 6 14 3 0
-27 -19 -38 -33 -25 -24 20 3 17 6 37 8 45 4 35 49 120 62 120 8 0 11 5 8 10
-8 13 90 105 128 121 15 6 27 15 27 20 0 5 17 17 38 27 49 24 81 44 103 62 9
8 33 26 52 40 19 14 48 44 64 67 26 39 52 52 45 24z m-1146 -386 c-3 -8 -1
-15 4 -15 6 0 9 -3 9 -7 -1 -5 0 -10 1 -13 1 -3 3 -12 5 -20 15 -70 15 -74 6
-55 -4 11 -9 24 -9 29 0 5 -5 12 -10 15 -16 10 -27 81 -12 81 7 0 10 -7 6 -15z
m73 -175 c22 -39 21 -52 -2 -27 -13 14 -37 54 -37 62 0 17 19 -1 39 -35z m58
-90 c11 -14 9 -30 -5 -30 -4 0 -12 11 -18 25 -13 28 2 31 23 5z m43 -60 c0
-14 48 -59 56 -51 4 3 3 0 -1 -8 -6 -10 -4 -13 6 -9 15 5 51 -26 42 -36 -11
-11 -24 -6 -17 6 5 8 2 9 -10 5 -9 -4 -14 -3 -11 2 3 5 -4 12 -15 16 -11 3
-20 9 -20 13 0 4 -13 21 -30 38 -16 18 -26 34 -23 38 7 7 23 -2 23 -14z m1209
-12 c0 -18 -56 -60 -63 -49 -4 5 7 18 23 27 17 10 28 21 25 26 -3 4 0 8 5 8 6
0 11 -6 10 -12z m-91 -95 c-13 -14 -24 -19 -26 -13 -5 15 28 51 40 44 5 -3 -1
-17 -14 -31z m-972 -18 c4 -8 10 -13 14 -10 4 3 10 -2 14 -10 7 -18 -3 -19
-26 -1 -10 7 -14 17 -10 21 4 4 -3 5 -16 2 -12 -3 -20 -1 -16 4 8 14 34 11 40
-6z"/>
<path d="M1090 2266 c-67 -19 -127 -53 -176 -98 -44 -41 -104 -123 -104 -142
0 -6 9 3 19 19 24 38 62 70 80 67 8 -2 10 1 5 9 -5 9 -2 10 9 6 12 -4 14 -2
10 10 -5 13 -2 15 11 10 9 -4 15 -3 11 2 -8 14 41 44 113 71 96 35 273 25 289
-17 3 -7 9 -10 14 -8 4 3 41 -26 81 -64 39 -39 73 -69 75 -67 9 8 -18 55 -56
98 -63 71 -151 111 -254 115 -47 1 -101 -3 -127 -11z"/>
<path d="M2037 1465 c-36 -46 -85 -70 -205 -101 -116 -31 -173 -62 -212 -115
-28 -39 -50 -113 -50 -167 l0 -27 23 27 c28 35 65 48 131 48 126 0 224 74 295
222 34 72 59 148 49 148 -2 0 -16 -16 -31 -35z m-64 -134 c-15 -20 -33 -40
-40 -44 -7 -5 -11 -12 -8 -16 6 -11 -65 -72 -75 -66 -4 3 -13 -2 -20 -10 -7
-8 -23 -15 -35 -15 -13 0 -25 -5 -27 -12 -3 -9 -6 -9 -12 0 -5 8 2 14 21 18
15 3 37 13 48 22 26 22 61 89 52 98 -4 4 -7 0 -7 -8 0 -22 -57 -62 -131 -92
-35 -15 -76 -35 -91 -46 -16 -12 -28 -17 -28 -12 0 19 60 63 140 102 103 50
111 57 79 69 l-24 9 30 7 c17 3 46 12 65 19 19 7 47 12 62 12 l28 0 -27 -35z
m-198 -27 c12 -5 6 -11 -25 -25 -23 -11 -46 -17 -50 -14 -5 3 -11 0 -13 -5 -3
-6 -4 -5 -3 1 1 7 18 20 36 31 40 21 34 20 55 12z"/>
<path d="M758 804 c-5 -4 -8 -49 -8 -101 0 -86 1 -93 20 -93 16 0 20 7 20 35
0 24 5 35 14 35 8 0 24 -16 36 -35 15 -24 29 -35 46 -35 31 0 30 7 -3 42 l-27
28 22 16 c28 19 29 65 2 89 -21 19 -109 33 -122 19z m96 -57 c13 -21 -5 -37
-41 -37 -19 0 -23 5 -23 31 0 27 3 30 26 27 15 -2 32 -11 38 -21z"/>
<path d="M976 803 c-3 -4 -6 -48 -6 -100 l0 -93 70 0 c63 0 70 2 70 20 0 17
-7 20 -50 20 -43 0 -50 3 -50 20 0 17 7 20 40 20 33 0 40 3 40 20 0 17 -7 20
-40 20 -34 0 -40 3 -40 21 0 19 5 20 48 17 41 -3 47 -1 47 17 0 18 -7 20 -61
22 -34 1 -65 -1 -68 -4z"/>
<path d="M1172 713 c3 -90 5 -98 23 -98 17 0 19 6 16 49 l-3 49 50 -41 c27
-23 52 -42 55 -42 2 0 5 29 5 65 0 36 -4 65 -8 65 -11 0 -27 -23 -31 -44 -3
-15 -13 -8 -49 37 -25 31 -49 56 -53 57 -4 0 -6 -44 -5 -97z"/>
<path d="M1400 710 c0 -92 1 -100 19 -100 17 0 20 8 23 53 l3 52 26 -44 26
-44 23 41 c13 23 28 42 32 42 5 0 6 -22 2 -50 -6 -46 -5 -50 15 -50 20 0 21 5
21 100 0 118 -13 130 -58 50 -15 -27 -30 -50 -33 -50 -3 0 -20 23 -37 50 -49
79 -62 69 -62 -50z"/>
<path d="M1674 795 c-3 -6 -4 -50 -2 -96 l3 -84 68 -3 c62 -3 67 -1 67 18 0
17 -6 20 -50 20 -43 0 -50 3 -50 20 0 17 7 20 40 20 33 0 40 3 40 20 0 17 -7
20 -40 20 -34 0 -40 3 -40 21 0 20 4 21 50 16 48 -6 50 -5 50 18 0 23 -3 24
-66 23 -40 -1 -68 -6 -70 -13z"/>
<path d="M1888 804 c-5 -4 -8 -50 -8 -102 l0 -94 57 4 c48 4 61 10 85 37 58
65 18 147 -77 157 -27 3 -53 3 -57 -2z m97 -59 c14 -13 25 -30 25 -38 0 -24
-24 -47 -57 -53 l-33 -6 0 61 c0 55 2 61 20 61 12 0 32 -11 45 -25z"/>
<path d="M2090 804 c0 -4 15 -27 34 -53 25 -33 36 -60 38 -91 2 -37 6 -45 23
-45 17 0 20 7 21 42 2 31 11 53 38 89 41 54 44 64 17 64 -18 0 -41 -22 -67
-66 -10 -17 -13 -15 -33 24 -16 32 -27 42 -46 42 -14 0 -25 -3 -25 -6z"/>
<path d="M867 523 c-11 -10 -8 -113 3 -113 6 0 10 11 10 25 0 22 3 24 30 19
23 -5 30 -3 30 10 0 11 -9 16 -31 16 -20 0 -29 4 -26 13 2 7 16 11 35 9 24 -3
32 1 32 12 0 12 -10 16 -38 16 -21 0 -42 -3 -45 -7z"/>
<path d="M1002 514 c-27 -19 -29 -64 -4 -87 58 -53 137 28 82 83 -24 24 -48
25 -78 4z m73 -34 c4 -12 1 -27 -5 -35 -27 -33 -78 -5 -65 35 4 14 15 20 35
20 20 0 31 -6 35 -20z"/>
<path d="M1140 487 c0 -48 21 -77 58 -77 33 0 52 27 52 76 0 56 -18 58 -22 3
-6 -77 -62 -79 -63 -2 0 20 -6 38 -12 40 -9 3 -13 -9 -13 -40z"/>
<path d="M1300 470 c0 -33 4 -60 10 -60 6 0 10 17 10 37 l0 38 31 -38 c17 -20
35 -37 40 -37 5 0 9 27 9 60 0 68 -17 82 -22 18 l-3 -42 -29 42 c-16 23 -33
42 -37 42 -5 0 -9 -27 -9 -60z"/>
<path d="M1450 470 l0 -60 35 0 c39 0 75 28 75 59 0 26 -46 61 -81 61 -29 0
-29 -1 -29 -60z m75 -5 c0 -25 -4 -30 -27 -33 -26 -3 -28 -1 -28 33 0 34 2 36
28 33 23 -3 27 -8 27 -33z"/>
<path d="M1614 493 c-33 -79 -34 -83 -20 -83 8 0 16 7 20 15 3 8 15 15 26 15
11 0 23 -7 26 -15 5 -13 34 -22 34 -11 0 14 -53 116 -61 116 -5 0 -16 -17 -25
-37z m40 -19 c8 -21 1 -28 -18 -21 -9 4 -13 13 -10 22 8 20 20 19 28 -1z"/>
<path d="M1707 524 c-10 -11 3 -24 22 -24 16 0 18 -6 13 -45 -4 -37 -2 -45 12
-45 12 0 16 10 16 44 0 35 4 45 20 49 11 3 20 10 20 16 0 12 -92 16 -103 5z"/>
<path d="M1840 470 c0 -33 4 -60 10 -60 6 0 10 27 10 60 0 33 -4 60 -10 60 -6
0 -10 -27 -10 -60z"/>
<path d="M1920 510 c-39 -39 -14 -100 42 -100 53 0 79 74 36 104 -30 21 -54
20 -78 -4z m77 -26 c16 -41 -46 -73 -67 -34 -9 16 -8 25 1 36 16 19 58 18 66
-2z"/>
<path d="M2060 470 c0 -33 4 -60 10 -60 6 0 10 17 10 38 l1 37 34 -40 c18 -22
37 -36 41 -33 11 12 8 112 -5 116 -7 2 -11 -12 -11 -39 l0 -43 -31 42 c-17 23
-35 42 -40 42 -5 0 -9 -27 -9 -60z"/>
</g>
</svg>
